<svg width="23" height="23" viewBox="0 0 23 23" fill="none" xmlns="http://www.w3.org/2000/svg">
<g clip-path="url(#clip0_533_2348)">
<path d="M5.85054 6.61426L3.85792 6.76353C3.30345 6.80508 2.80963 7.08685 2.50299 7.53657L0.204943 10.9066C-0.0276155 11.2477 -0.0645859 11.6745 0.105981 12.0484C0.276593 12.4223 0.627205 12.6828 1.04385 12.7454L2.86834 13.0194C3.29514 10.8233 4.31683 8.63254 5.85054 6.61426Z" fill="#FFD050"/>
<path d="M10.1836 20.1113L10.4662 21.8804C10.5307 22.2843 10.7995 22.6243 11.185 22.7897C11.3454 22.8585 11.5152 22.8925 11.6842 22.8925C11.9215 22.8925 12.1572 22.8254 12.3626 22.6937L15.8384 20.4656C16.3022 20.1682 16.5928 19.6893 16.6355 19.1518L16.7895 17.2197C14.7079 18.7069 12.4486 19.6975 10.1836 20.1113Z" fill="#FFD050"/>
<path d="M9.49658 18.8846C9.55992 18.8846 9.62362 18.8796 9.68718 18.8693C10.6361 18.7155 11.5507 18.4563 12.4232 18.1171L4.92442 10.8462C4.57457 11.6921 4.30729 12.5789 4.14863 13.499C4.0861 13.8617 4.21156 14.2312 4.4797 14.4913L8.66387 18.5483C8.8865 18.7641 9.18698 18.8846 9.49658 18.8846Z" fill="#FFD050"/>
<path d="M21.1661 10.4788C23.0011 7.03894 23.069 3.40388 22.9731 1.69908C22.9403 1.11495 22.46 0.649239 21.8575 0.617399C21.5712 0.602241 21.2319 0.591309 20.8495 0.591309C18.8835 0.591309 15.7726 0.880045 12.8027 2.36955C10.4424 3.55328 7.34745 6.15975 5.52148 9.58512C5.54305 9.60145 5.56411 9.61879 5.58397 9.63804L13.6698 17.4782C13.6897 17.4975 13.7075 17.5179 13.7244 17.5388C17.2571 15.7682 19.9453 12.7673 21.1661 10.4788ZM13.3731 5.30587C14.6866 4.03223 16.8241 4.0321 18.1377 5.30587C18.7741 5.92284 19.1245 6.74323 19.1245 7.6158C19.1245 8.48837 18.7741 9.30875 18.1377 9.92573C17.481 10.5625 16.618 10.8809 15.7554 10.881C14.8925 10.8811 14.03 10.5627 13.3731 9.92573C12.7367 9.30875 12.3863 8.48837 12.3863 7.6158C12.3863 6.74323 12.7367 5.92284 13.3731 5.30587Z" fill="#232536"/>
<path d="M14.3264 9.00182C15.1146 9.76602 16.3971 9.76607 17.1853 9.00182C17.5671 8.63159 17.7773 8.13939 17.7773 7.61584C17.7773 7.09229 17.5671 6.60009 17.1853 6.2299C16.7912 5.84778 16.2735 5.65674 15.7559 5.65674C15.2382 5.65674 14.7205 5.84778 14.3265 6.2299C13.9447 6.60009 13.7344 7.09229 13.7344 7.61584C13.7344 8.13939 13.9447 8.63163 14.3264 9.00182Z" fill="#232536"/>
<path d="M0.687523 18.9691C0.859978 18.9691 1.03243 18.9054 1.16396 18.7778L3.36392 16.6446C3.62708 16.3895 3.62708 15.9758 3.36392 15.7207C3.10082 15.4655 2.67415 15.4655 2.411 15.7207L0.211036 17.8538C-0.0521162 18.1089 -0.0521162 18.5226 0.211036 18.7778C0.342612 18.9053 0.515068 18.9691 0.687523 18.9691Z" fill="#FFD050"/>
<path d="M5.37991 17.6762C5.1168 17.4211 4.69014 17.4211 4.42698 17.6762L0.197364 21.7773C-0.0657881 22.0325 -0.0657881 22.4461 0.197364 22.7013C0.32894 22.8289 0.501396 22.8926 0.673851 22.8926C0.846306 22.8926 1.01876 22.8289 1.15029 22.7013L5.37987 18.6002C5.64306 18.345 5.64306 17.9314 5.37991 17.6762Z" fill="#FFD050"/>
<path d="M6.4422 19.6303L4.24229 21.7634C3.97913 22.0186 3.97913 22.4323 4.24229 22.6874C4.37386 22.815 4.54632 22.8788 4.71873 22.8788C4.89114 22.8788 5.06364 22.815 5.19517 22.6874L7.39513 20.5543C7.65828 20.2991 7.65828 19.8855 7.39513 19.6303C7.13202 19.3752 6.70535 19.3752 6.4422 19.6303Z" fill="#FFD050"/>
</g>
<defs>
<clipPath id="clip0_533_2348">
<rect width="23" height="22.3011" fill="white" transform="translate(0 0.591309)"/>
</clipPath>
</defs>
</svg>
