<svg width="48" height="48" viewBox="0 0 48 48" fill="none" xmlns="http://www.w3.org/2000/svg">
<g clip-path="url(#clip0_533_2310)">
<path d="M18.1156 27.5469H15.5317C14.5999 27.5469 13.8418 28.3154 13.8418 29.2599V34.809C13.8418 35.3891 14.3074 35.861 14.8796 35.861H18.7676C19.3398 35.861 19.8054 35.3891 19.8054 34.809V29.26C19.8054 28.3154 19.0474 27.5469 18.1156 27.5469Z" fill="#232536"/>
<path d="M25.6996 24.1763H23.1157C22.1839 24.1763 21.4258 24.9448 21.4258 25.8893V34.8087C21.4258 35.3887 21.8914 35.8607 22.4636 35.8607H26.3516C26.9239 35.8607 27.3894 35.3887 27.3894 34.8087V25.8893C27.3894 24.9447 26.6314 24.1763 25.6996 24.1763Z" fill="#232536"/>
<path d="M33.4261 20.3364H30.8423C29.9104 20.3364 29.1523 21.1049 29.1523 22.0494V34.8089C29.1523 35.389 29.6179 35.8609 30.1901 35.8609H34.0781C34.6504 35.8609 35.1159 35.389 35.1159 34.8089V22.0494C35.116 21.1049 34.3579 20.3364 33.4261 20.3364Z" fill="#232536"/>
<path d="M31.3681 13.2382C31.052 12.7853 30.538 12.5458 29.9929 12.5965L25.1128 13.0542C24.5678 13.1054 24.1059 13.4367 23.8771 13.9406C23.6483 14.4445 23.7004 15.0158 24.0165 15.4687L24.2889 15.8589L18.2318 20.1017L18.2256 20.1061C17.7958 20.4144 17.5102 20.8739 17.4213 21.4C17.3325 21.9261 17.4511 22.4558 17.7552 22.8915C18.0593 23.3271 18.5127 23.6167 19.0317 23.7068C19.1441 23.7263 19.2567 23.7359 19.3685 23.7359C19.7713 23.7359 20.1637 23.6107 20.4996 23.3708L26.5664 19.1214L26.8476 19.5241C27.1357 19.9367 27.588 20.1725 28.0783 20.1725C28.1261 20.1725 28.1743 20.1702 28.2228 20.1657C28.7677 20.1146 29.2297 19.7832 29.4585 19.2793L31.5076 14.7662C31.7364 14.2622 31.6843 13.691 31.3681 13.2382Z" fill="#FFD050"/>
</g>
<defs>
<clipPath id="clip0_533_2310">
<rect width="22.9565" height="23.2707" fill="white" transform="translate(13 12.5903)"/>
</clipPath>
</defs>
</svg>
