<svg width="48" height="48" viewBox="0 0 48 48" fill="none" xmlns="http://www.w3.org/2000/svg">
<g clip-path="url(#clip0_533_2337)">
<path d="M27.5176 19.408C27.5176 20.1596 28.1486 20.7715 28.9238 20.7715H33.1042C33.0283 19.8119 32.7988 18.8949 32.4316 18.0444H28.9238C28.1486 18.0444 27.5176 18.6563 27.5176 19.408Z" fill="#232536"/>
<path d="M18.377 35.8609H26.8145C27.2031 35.8609 27.5176 35.5559 27.5176 35.1791V31.6794H28.9238V27.248L21.893 22.1348H15.5645C15.1758 22.1348 14.8613 22.4397 14.8613 22.8165C14.8613 25.2313 15.8824 27.5443 17.6738 29.212V35.1791C17.6738 35.5559 17.9883 35.8609 18.377 35.8609Z" fill="#FFD050"/>
<path d="M24.002 12.5903C23.6133 12.5903 23.2988 12.8953 23.2988 13.2721V13.9539H20.3568C20.0656 13.162 19.2924 12.5903 18.377 12.5903C17.2138 12.5903 16.2676 13.5078 16.2676 14.6356C16.2676 15.7634 17.2138 16.6809 18.377 16.6809C19.2924 16.6809 20.0656 16.1092 20.3568 15.3174H23.2988V18.0444H16.1381C15.8468 17.2526 15.0737 16.6809 14.1582 16.6809C12.995 16.6809 12.002 17.5984 12.002 18.7262C12.002 19.854 12.995 20.7715 14.1582 20.7715C15.0737 20.7715 15.8468 20.1998 16.1381 19.4079H23.2988V21.4535L30.0485 26.362C30.2257 26.4905 30.3301 26.6929 30.3301 26.9073V31.6796H31.0332C32.1964 31.6796 33.1426 30.7621 33.1426 29.6343V26.2255H35.2988C35.5584 26.2255 35.7966 26.087 35.9189 25.8653C36.0411 25.6436 36.0274 25.3746 35.8839 25.1656L33.7533 22.135H28.9238C27.3727 22.135 26.1113 20.9119 26.1113 19.4079C26.1113 17.9039 27.3727 16.6809 28.9238 16.6809H31.6897C30.0628 14.2256 27.2291 12.5903 24.002 12.5903V12.5903Z" fill="#232536"/>
</g>
<defs>
<clipPath id="clip0_533_2337">
<rect width="24" height="23.2707" fill="white" transform="translate(12 12.5903)"/>
</clipPath>
</defs>
</svg>
